<svg width="101" height="31" viewBox="0 0 101 31" fill="none" xmlns="http://www.w3.org/2000/svg">
<path d="M17.9757 5.73487H10.1685C4.55262 5.73487 0 10.2912 0 15.9117V20.1618C0 26.0662 4.78319 30.8528 10.6825 30.8528H17.461C23.3608 30.8528 28.1433 26.0657 28.1433 20.1618V15.9117C28.1442 10.2912 23.5909 5.73487 17.9757 5.73487ZM25.0019 19.9164C25.0019 24.4079 21.3637 28.0498 16.8751 28.0498H11.2686C6.78052 28.0498 3.14181 24.4083 3.14181 19.9164V16.3771C3.14181 12.0485 6.64794 8.53929 10.9732 8.53929H17.1707C21.4958 8.53929 25.0019 12.0483 25.0019 16.3771V19.9164Z" fill="url(#paint0_linear_25901_59)"/>
<path fill-rule="evenodd" clip-rule="evenodd" d="M14.1174 5.37631C12.91 5.38769 11.6884 5.14718 10.585 4.64662C9.48443 4.14746 8.47508 3.37478 7.76364 2.32673C7.65795 2.17344 7.58362 2.00074 7.54495 1.81857C7.50627 1.63639 7.50401 1.44836 7.5383 1.26531C7.57259 1.08226 7.64274 0.907816 7.74472 0.752033C7.8467 0.596251 7.97848 0.462213 8.13247 0.35765C8.28646 0.253087 8.4596 0.180067 8.64192 0.142801C8.82425 0.105535 9.01214 0.10476 9.19476 0.140521C9.37738 0.176282 9.55113 0.247871 9.70597 0.35116C9.86081 0.454449 9.9937 0.587395 10.097 0.742331C10.4719 1.29378 11.0429 1.75692 11.749 2.07645C12.4551 2.39598 13.2657 2.56213 14.0902 2.55446C14.9147 2.5468 15.7195 2.36577 16.4142 2.0323C17.109 1.69883 17.6655 1.22569 18.0208 0.667504C18.1191 0.508807 18.2479 0.371217 18.3997 0.262708C18.5516 0.1542 18.7234 0.0769305 18.9053 0.0353795C19.0872 -0.00617151 19.2755 -0.0111781 19.4594 0.0206499C19.6432 0.0524779 19.8189 0.120507 19.9763 0.220796C20.1337 0.321084 20.2696 0.451636 20.3762 0.604886C20.4828 0.758135 20.5579 0.931034 20.5972 1.11356C20.6366 1.29609 20.6393 1.48461 20.6053 1.66821C20.5713 1.85181 20.5012 2.02682 20.3992 2.18311C19.7172 3.25533 18.7234 4.05357 17.6337 4.57667C16.544 5.09977 15.3248 5.36492 14.1174 5.37631Z" fill="#26DB33"/>
<path fill-rule="evenodd" clip-rule="evenodd" d="M8.893 14.1416C9.13401 13.7802 9.43563 13.5495 9.37433 13.0989C9.29818 12.547 8.84447 12.1408 8.28929 12.1445C7.96863 12.1461 7.66609 12.2711 7.46803 12.4931L7.46338 12.4884C7.14721 12.8046 6.8579 13.1466 6.59846 13.5109C6.51389 13.6305 6.45692 13.7674 6.43166 13.9118C6.4064 14.0561 6.41349 14.2043 6.45242 14.3455C6.49134 14.4868 6.56113 14.6176 6.65674 14.7286C6.75234 14.8396 6.87139 14.9279 7.00526 14.9873L7.07492 15.0186C7.55928 15.2343 8.13372 15.0932 8.45067 14.6677C8.5877 14.4838 8.7354 14.3082 8.893 14.1416V14.1416Z" fill="#26DB33"/>
<path fill-rule="evenodd" clip-rule="evenodd" d="M8.81476 22.0871C8.24293 21.4593 7.81492 20.7142 7.56061 19.9038C7.30631 19.0934 7.23184 18.2372 7.34242 17.395C7.36625 17.218 7.33147 17.0381 7.2434 16.8828C7.15533 16.7275 7.01884 16.6054 6.85481 16.5352L6.52463 16.3941C5.93161 16.1385 5.25639 16.5231 5.17791 17.164C5.02803 18.3747 5.15593 19.6037 5.55188 20.7575C5.94783 21.9114 6.6014 22.9597 7.46293 23.8227L7.46757 23.8181C7.65611 23.9866 7.91849 24.0758 8.19085 24.0793C8.76019 24.0865 9.25314 23.6378 9.29284 23.0686C9.30663 22.8774 9.26968 22.6859 9.18572 22.5135C9.10177 22.3411 8.97379 22.194 8.81476 22.0871V22.0871Z" fill="#26DB33"/>
<path d="M38.6094 9.61499V11.35H35.1608V22.5811H33.0358V11.35H29.5685V9.61499H38.6094Z" fill="white"/>
<path d="M42.5799 22.0866C41.7969 21.6452 41.1818 21.0234 40.7344 20.221C40.2871 19.4187 40.0634 18.4891 40.0634 17.4324C40.0634 16.3876 40.2933 15.461 40.753 14.6526C41.2127 13.8442 41.8404 13.2224 42.6359 12.787C43.4309 12.3517 44.3194 12.134 45.3014 12.134C46.2835 12.134 47.172 12.3517 47.967 12.787C48.7624 13.2225 49.39 13.8444 49.8499 14.6526C50.3098 15.4609 50.5397 16.3874 50.5395 17.4324C50.5395 18.4772 50.3034 19.4038 49.8313 20.2122C49.3592 21.0206 48.7159 21.6454 47.9015 22.0866C47.0872 22.5283 46.1893 22.749 45.2081 22.7489C44.2389 22.7489 43.3629 22.5281 42.5799 22.0866ZM46.7461 20.5103C47.2245 20.2493 47.6128 19.8576 47.9113 19.3352C48.2097 18.8128 48.3588 18.1784 48.3585 17.4322C48.3585 16.6861 48.2156 16.0548 47.9299 15.5385C47.6441 15.0221 47.2649 14.6335 46.7921 14.3726C46.325 14.1127 45.7988 13.9776 45.2643 13.9803C44.7325 13.9765 44.2089 14.1117 43.7453 14.3724C43.2793 14.6336 42.9096 15.0222 42.6361 15.5382C42.3626 16.0543 42.2259 16.6855 42.226 17.4319C42.226 18.539 42.5087 19.3941 43.074 19.9972C43.6393 20.6003 44.3507 20.9019 45.2081 20.9019C45.7457 20.9043 46.2751 20.7696 46.7461 20.5103V20.5103Z" fill="white"/>
<path d="M67.2509 12.6372C67.8909 12.9729 68.3939 13.4704 68.7602 14.1298C69.1264 14.7891 69.3096 15.5851 69.3098 16.5177V22.5811H67.2036V16.8349C67.2036 15.9147 66.9736 15.2089 66.5137 14.7175C66.0538 14.226 65.4266 13.9803 64.632 13.9803C63.8365 13.9803 63.2058 14.226 62.7399 14.7172C62.2739 15.2085 62.0409 15.9143 62.0407 16.8347V22.5811H59.9343V16.8349C59.9343 15.9147 59.7044 15.2089 59.2447 14.7175C58.7849 14.226 58.1574 13.9803 57.362 13.9803C56.5658 13.9803 55.9354 14.226 55.471 14.7175C55.0067 15.2089 54.7736 15.9147 54.7719 16.8349V22.5811H52.6469V12.3014H54.7719V13.4768C55.1197 13.054 55.5609 12.7244 56.0954 12.488C56.6358 12.2505 57.2202 12.1297 57.8104 12.1336C58.6308 12.1336 59.3641 12.3077 60.0102 12.656C60.6563 13.0042 61.1534 13.5077 61.5014 14.1665C61.8119 13.5449 62.2965 13.0506 62.9553 12.6834C63.6042 12.3191 64.3364 12.1295 65.0804 12.1331C65.8876 12.1334 66.6112 12.3014 67.2509 12.6372Z" fill="white"/>
<path d="M71.9482 14.6522C72.377 13.8563 72.9611 13.2376 73.7006 12.7959C74.4401 12.3542 75.2571 12.1334 76.1519 12.1336C76.9594 12.1336 77.6647 12.2921 78.2676 12.6093C78.8705 12.9264 79.352 13.3214 79.7121 13.7944V12.3014H81.8557V22.5811H79.7121V21.0513C79.3514 21.5364 78.8606 21.9406 78.2395 22.2639C77.6185 22.5872 76.9101 22.7489 76.1143 22.7489C75.2319 22.7489 74.4242 22.5219 73.6911 22.068C72.958 21.6141 72.3769 20.9797 71.948 20.165C71.5194 19.3506 71.3051 18.4271 71.3051 17.3945C71.3051 16.362 71.5194 15.4478 71.9482 14.6522ZM79.2742 15.5849C78.9821 15.0625 78.6 14.6645 78.1278 14.391C77.6642 14.1197 77.1363 13.9779 76.5993 13.9803C76.0634 13.9774 75.5362 14.1157 75.0708 14.3814C74.5982 14.6488 74.216 15.0405 73.9242 15.5566C73.6324 16.0726 73.4864 16.6852 73.4863 17.3943C73.4863 18.1032 73.6323 18.7252 73.9242 19.2601C74.2161 19.7951 74.6014 20.2023 75.0801 20.482C75.5581 20.7618 76.0645 20.9017 76.5993 20.9017C77.1363 20.9043 77.6642 20.7626 78.1278 20.4913C78.5998 20.218 78.9819 19.8169 79.2742 19.288C79.5664 18.7591 79.7124 18.1404 79.7121 17.4319C79.7121 16.723 79.5661 16.1073 79.2742 15.5849V15.5849Z" fill="white"/>
<path d="M87.1313 14.0366V19.7267C87.1313 20.1122 87.2214 20.3889 87.4016 20.5568C87.5818 20.7247 87.8894 20.8087 88.3244 20.8087H89.6291V22.5811H87.9515C86.9944 22.5811 86.2612 22.3572 85.7519 21.9095C85.2426 21.4618 84.9878 20.7342 84.9875 19.7267V14.0366H83.7755V12.3014H84.987V9.74513H87.1309V12.3014H89.6291V14.0366H87.1313Z" fill="white"/>
<path d="M100.926 18.2341H93.0774C93.1393 19.0552 93.4438 19.7144 93.9908 20.2117C94.5379 20.709 95.209 20.9577 96.0042 20.9579C97.1472 20.9579 97.9549 20.479 98.4274 19.5213H100.72C100.409 20.4663 99.8471 21.2409 99.0331 21.8451C98.2192 22.4493 97.2096 22.7509 96.0042 22.7498C95.0223 22.7498 94.1431 22.529 93.3665 22.0875C92.5899 21.646 91.9809 21.0241 91.5396 20.2219C91.0982 19.4197 90.8777 18.4902 90.8778 17.4333C90.878 16.3764 91.0924 15.4469 91.521 14.6447C91.9496 13.8425 92.5523 13.2238 93.3291 12.7884C94.1058 12.3531 94.9975 12.1354 96.0042 12.1354C96.9734 12.1354 97.837 12.3468 98.5952 12.7696C99.3431 13.1825 99.9575 13.8007 100.366 14.5513C100.789 15.3163 101 16.1963 101 17.1912C101.002 17.5402 100.977 17.889 100.926 18.2341ZM98.7819 16.5177C98.7694 15.7341 98.4897 15.1061 97.943 14.6336C97.3963 14.161 96.7189 13.9247 95.9111 13.9246C95.1778 13.9246 94.5503 14.1577 94.0284 14.624C93.5066 15.0904 93.196 15.7216 93.0964 16.5177H98.7819Z" fill="white"/>
<path d="M85.2049 28.4525C85.0198 28.3756 84.8595 28.2489 84.7419 28.0865C84.6284 27.9248 84.5695 27.731 84.5735 27.5334H85.2151C85.2245 27.6825 85.2911 27.8221 85.4008 27.9232C85.5114 28.0252 85.6666 28.0762 85.8666 28.0761C86.0736 28.0761 86.2349 28.026 86.3507 27.9259C86.4069 27.8787 86.4518 27.8193 86.4818 27.7522C86.5119 27.6852 86.5265 27.6122 86.5244 27.5388C86.5244 27.4159 86.4884 27.3159 86.4164 27.2386C86.3416 27.1594 86.25 27.0982 86.1483 27.0594C86.0027 27.0054 85.8541 26.9597 85.7034 26.9225C85.5054 26.8728 85.3114 26.8086 85.1229 26.7303C84.9719 26.6641 84.8405 26.56 84.7414 26.4282C84.6363 26.2913 84.5837 26.1087 84.5835 25.8805C84.5793 25.6844 84.6344 25.4917 84.7414 25.3274C84.8504 25.1662 85.0036 25.04 85.1826 24.964C85.372 24.8799 85.5913 24.8377 85.8404 24.8376C86.1947 24.8376 86.485 24.9262 86.7113 25.1036C86.9376 25.281 87.063 25.5242 87.0875 25.8331H86.4243C86.414 25.6997 86.3509 25.5856 86.2351 25.4908C86.1193 25.396 85.9667 25.3486 85.7772 25.3486C85.6052 25.3486 85.4649 25.3924 85.3563 25.4801C85.2476 25.5678 85.1934 25.6942 85.1937 25.8594C85.1918 25.9099 85.1999 25.9604 85.2175 26.0079C85.2351 26.0553 85.2619 26.0988 85.2963 26.1359C85.3698 26.2111 85.4587 26.2696 85.5569 26.3072C85.698 26.3607 85.8421 26.4064 85.9883 26.444C86.19 26.4969 86.3879 26.5638 86.5804 26.6441C86.7343 26.7119 86.8684 26.818 86.9698 26.9523C87.0769 27.0917 87.1304 27.2769 87.1302 27.5079C87.1303 27.694 87.0783 27.8764 86.9802 28.0345C86.8745 28.2051 86.7232 28.3428 86.5435 28.4321C86.3524 28.5323 86.1271 28.5823 85.8673 28.5822C85.6399 28.5855 85.4143 28.5413 85.2049 28.4525V28.4525Z" fill="white"/>
<path d="M88.5412 26.1326V27.7389C88.5412 27.8473 88.5667 27.9255 88.6176 27.9734C88.6682 28.0198 88.7553 28.0445 88.8781 28.0445H89.2464V28.5448H88.7727C88.5028 28.5448 88.2958 28.4816 88.1518 28.3552C88.0079 28.2287 87.936 28.0233 87.9361 27.7389V26.1326H87.5941V25.6428H87.9361V24.9224H88.5412V25.6428H89.2464V26.1326H88.5412Z" fill="white"/>
<path d="M92.4249 25.6428V28.5448H91.8249V28.2022C91.7258 28.3249 91.5983 28.4216 91.4534 28.4839C91.3001 28.5526 91.1338 28.5877 90.9658 28.5866C90.7529 28.5902 90.5425 28.5413 90.3528 28.4444C90.1728 28.3494 90.0251 28.2028 89.9286 28.0233C89.8251 27.8374 89.7733 27.6128 89.7733 27.3494V25.643H90.3679V27.2599C90.3679 27.5197 90.4329 27.719 90.5627 27.8576C90.6926 27.9963 90.8698 28.0656 91.0942 28.0656C91.3188 28.0656 91.4969 27.9963 91.6283 27.8576C91.7597 27.719 91.8255 27.5197 91.8256 27.2599V25.643L92.4249 25.6428Z" fill="white"/>
<path d="M93.1958 26.3065C93.3091 26.089 93.4805 25.9074 93.691 25.7818C93.9015 25.6562 94.1427 25.5917 94.3877 25.5954C94.5811 25.5963 94.7722 25.6384 94.9482 25.719C95.119 25.7916 95.2698 25.9046 95.3875 26.0483V24.6468H95.9928V28.5443H95.3875V28.1072C95.2817 28.2547 95.1418 28.3743 94.9797 28.4558C94.7948 28.5498 94.5897 28.5969 94.3823 28.5929C94.1382 28.5952 93.8983 28.5285 93.6904 28.4005C93.4795 28.2701 93.3085 28.0843 93.1958 27.8634C93.0747 27.6334 93.0142 27.3726 93.0142 27.0812C93.0142 26.7898 93.0747 26.5316 93.1958 26.3065ZM95.2639 26.5697C95.1888 26.4299 95.0768 26.3133 94.9403 26.2326C94.8094 26.1559 94.6603 26.1158 94.5086 26.1164C94.3543 26.115 94.2024 26.1557 94.0694 26.2341C93.9364 26.3125 93.8272 26.4256 93.7535 26.5614C93.671 26.707 93.6298 26.8799 93.63 27.0801C93.6302 27.2802 93.6713 27.4557 93.7535 27.6066C93.8283 27.7496 93.9413 27.8691 94.0798 27.9517C94.2094 28.0292 94.3576 28.0702 94.5086 28.0703C94.6603 28.0709 94.8094 28.0308 94.9403 27.9541C95.0773 27.8729 95.1894 27.7554 95.2639 27.6145C95.3463 27.465 95.3875 27.2903 95.3875 27.0903C95.3875 26.8903 95.3463 26.7168 95.2639 26.5697Z" fill="white"/>
<path d="M96.8136 25.1476C96.7591 25.0937 96.7219 25.0249 96.7068 24.9498C96.6917 24.8747 96.6993 24.7968 96.7287 24.726C96.7581 24.6553 96.808 24.595 96.8719 24.5528C96.9358 24.5106 97.0108 24.4884 97.0874 24.4892C97.1372 24.4883 97.1868 24.4977 97.2329 24.5167C97.279 24.5358 97.3208 24.564 97.3555 24.5998C97.4263 24.6734 97.4658 24.7716 97.4658 24.8737C97.4658 24.9758 97.4263 25.074 97.3555 25.1476C97.3208 25.1834 97.2791 25.2117 97.2329 25.2307C97.1868 25.2498 97.1372 25.2591 97.0874 25.2582C97.0366 25.2594 96.9861 25.2503 96.939 25.2312C96.8919 25.2122 96.8493 25.1837 96.8136 25.1476V25.1476ZM97.382 25.6428V28.5448H96.782V25.6428H97.382Z" fill="white"/>
<path d="M98.687 28.4051C98.4674 28.282 98.2868 28.0995 98.1659 27.8785C98.0398 27.652 97.9767 27.3895 97.9767 27.091C97.9767 26.7966 98.0416 26.5351 98.1713 26.3065C98.2952 26.0841 98.4794 25.9015 98.7028 25.7796C98.9352 25.6586 99.1933 25.5954 99.4553 25.5954C99.7173 25.5954 99.9754 25.6586 100.208 25.7796C100.431 25.9015 100.615 26.0841 100.739 26.3065C100.869 26.5347 100.934 26.7962 100.934 27.091C100.934 27.3858 100.867 27.6474 100.734 27.8757C100.605 28.0996 100.417 28.2829 100.189 28.4051C99.9558 28.5304 99.6942 28.5944 99.4291 28.591C99.1697 28.595 98.9138 28.5309 98.687 28.4051V28.4051ZM99.8633 27.9601C100.002 27.8826 100.116 27.7676 100.192 27.6283C100.276 27.4809 100.318 27.3018 100.318 27.091C100.318 26.8801 100.278 26.702 100.197 26.5565C100.124 26.4183 100.012 26.3041 99.8758 26.2274C99.7439 26.154 99.5953 26.1159 99.4444 26.1168C99.2942 26.1156 99.1464 26.1538 99.0155 26.2274C98.8811 26.304 98.7721 26.4184 98.7023 26.5565C98.6249 26.7021 98.5862 26.8803 98.5862 27.091C98.5862 27.4035 98.666 27.6449 98.8256 27.8153C98.9852 27.9857 99.186 28.071 99.4281 28.071C99.5802 28.0716 99.73 28.0335 99.8633 27.9601Z" fill="white"/>
<path fill-rule="evenodd" clip-rule="evenodd" d="M33.2919 27.6954C33.2469 25.6737 34.5263 25.5164 36.2995 25.0672C36.1423 26.6397 35.8056 28.0098 33.6509 28.0772C33.6061 28.1897 33.5613 28.3019 33.5387 28.4367C33.4714 28.7063 33.1347 28.5715 33.2246 28.3693C33.6061 27.381 34.2569 26.6397 35.0875 26.0106C35.0875 26.0106 33.8979 26.5723 33.2919 27.6954Z" fill="#26DB33"/>
<path fill-rule="evenodd" clip-rule="evenodd" d="M39.0183 27.6954C38.9733 25.6737 40.2526 25.5164 42.0259 25.0672C41.8687 26.6397 41.532 28.0098 39.3773 28.0772C39.3325 28.1897 39.2876 28.3019 39.2651 28.4367C39.1978 28.7063 38.8611 28.5715 38.951 28.3693C39.3325 27.381 39.9833 26.6397 40.8138 26.0106C40.8138 26.0106 39.6243 26.5723 39.0183 27.6954Z" fill="#26DB33"/>
<path fill-rule="evenodd" clip-rule="evenodd" d="M44.7437 27.6954C44.6987 25.6737 45.9781 25.5164 47.7513 25.0672C47.5941 26.6397 47.2575 28.0098 45.1027 28.0772C45.0579 28.1897 45.0128 28.3019 44.9906 28.4367C44.9232 28.7063 44.5865 28.5715 44.6764 28.3693C45.0579 27.381 45.7087 26.6397 46.5393 26.0106C46.5402 26.0106 45.3505 26.5723 44.7437 27.6954Z" fill="#26DB33"/>
<path fill-rule="evenodd" clip-rule="evenodd" d="M50.4708 27.6954C50.426 25.6737 51.7053 25.5164 53.4786 25.0672C53.3214 26.6397 52.9847 28.0098 50.83 28.0772C50.7852 28.1897 50.7401 28.3019 50.7178 28.4367C50.6505 28.7063 50.3138 28.5715 50.4034 28.3693C50.7852 27.381 51.436 26.6397 52.2666 26.0106C52.2668 26.0106 51.0768 26.5723 50.4708 27.6954Z" fill="#26DB33"/>
<path fill-rule="evenodd" clip-rule="evenodd" d="M56.1971 27.6954C56.1523 25.6737 57.4317 25.5164 59.2048 25.0672C59.0478 26.6397 58.7111 28.0098 56.5563 28.0772C56.5115 28.1897 56.4665 28.3019 56.4442 28.4367C56.3769 28.7063 56.0402 28.5715 56.1298 28.3693C56.5115 27.381 57.1624 26.6397 57.9927 26.0106C57.9927 26.0106 56.8032 26.5723 56.1971 27.6954Z" fill="#26DB33"/>
<path fill-rule="evenodd" clip-rule="evenodd" d="M61.9235 27.6954C61.8787 25.6737 63.1581 25.5164 64.9311 25.0672C64.7741 26.6397 64.4375 28.0098 62.2827 28.0772C62.2319 28.1925 62.1942 28.3131 62.1703 28.4367C62.103 28.7063 61.7663 28.5715 61.8562 28.3693C62.2377 27.381 62.8887 26.6397 63.7191 26.0106C63.7191 26.0106 62.5298 26.5723 61.9235 27.6954Z" fill="#26DB33"/>
<path fill-rule="evenodd" clip-rule="evenodd" d="M67.6499 27.6954C67.605 25.6737 68.8844 25.5164 70.6575 25.0672C70.5003 26.6397 70.1636 28.0098 68.0091 28.0772C67.9583 28.1925 67.9206 28.3131 67.8967 28.4367C67.8293 28.7063 67.4927 28.5715 67.5825 28.3693C67.964 27.381 68.6151 26.6397 69.4454 26.0106C69.4454 26.0106 68.2559 26.5723 67.6499 27.6954Z" fill="#26DB33"/>
<path fill-rule="evenodd" clip-rule="evenodd" d="M73.3762 27.6954C73.3312 25.6737 74.6105 25.5164 76.3838 25.0672C76.2266 26.6397 75.8899 28.0098 73.7352 28.0772C73.6904 28.1897 73.6456 28.3019 73.623 28.4367C73.5557 28.7063 73.219 28.5715 73.3089 28.3693C73.6904 27.381 74.3412 26.6397 75.1718 26.0106C75.1718 26.0106 73.9822 26.5723 73.3762 27.6954Z" fill="#26DB33"/>
<path fill-rule="evenodd" clip-rule="evenodd" d="M79.1026 27.6954C79.0575 25.6737 80.3369 25.5164 82.1102 25.0672C81.953 26.6397 81.6163 28.0098 79.4615 28.0772C79.4167 28.1897 79.3719 28.3019 79.3494 28.4367C79.282 28.7063 78.9454 28.5715 79.0352 28.3693C79.4167 27.381 80.0676 26.6397 80.8981 26.0106C80.8981 26.0106 79.7086 26.5723 79.1026 27.6954Z" fill="#26DB33"/>
<defs>
<linearGradient id="paint0_linear_25901_59" x1="23.1648" y1="27.2439" x2="2.53257" y2="6.62836" gradientUnits="userSpaceOnUse">
<stop offset="0.01" stop-color="#FB005C"/>
<stop offset="0.28" stop-color="#FF236F"/>
<stop offset="0.61" stop-color="#FF1800"/>
<stop offset="0.98" stop-color="#E81500"/>
</linearGradient>
</defs>
</svg>
